<svg width="10" height="10" viewBox="0 0 10 10" fill="none" xmlns="http://www.w3.org/2000/svg">
<path d="M2.08333 3.33333C2.08333 3.44384 2.12723 3.54982 2.20537 3.62796C2.28351 3.7061 2.38949 3.75 2.5 3.75C2.61051 3.75 2.71649 3.7061 2.79463 3.62796C2.87277 3.54982 2.91667 3.44384 2.91667 3.33333V2.91667H3.33333C3.44384 2.91667 3.54982 2.87277 3.62796 2.79463C3.7061 2.71649 3.75 2.61051 3.75 2.5C3.75 2.38949 3.7061 2.28351 3.62796 2.20537C3.54982 2.12723 3.44384 2.08333 3.33333 2.08333H2.91667V1.66667C2.91667 1.55616 2.87277 1.45018 2.79463 1.37204C2.71649 1.2939 2.61051 1.25 2.5 1.25C2.38949 1.25 2.28351 1.2939 2.20537 1.37204C2.12723 1.45018 2.08333 1.55616 2.08333 1.66667V2.08333H1.66667C1.55616 2.08333 1.45018 2.12723 1.37204 2.20537C1.2939 2.28351 1.25 2.38949 1.25 2.5C1.25 2.61051 1.2939 2.71649 1.37204 2.79463C1.45018 2.87277 1.55616 2.91667 1.66667 2.91667H2.08333V3.33333ZM7.5 2.08333H5C4.88949 2.08333 4.78351 2.12723 4.70537 2.20537C4.62723 2.28351 4.58333 2.38949 4.58333 2.5C4.58333 2.61051 4.62723 2.71649 4.70537 2.79463C4.78351 2.87277 4.88949 2.91667 5 2.91667H7.5C7.61051 2.91667 7.71649 2.96057 7.79463 3.03871C7.87277 3.11685 7.91667 3.22283 7.91667 3.33333V7.38333L7.2625 6.77917C7.18566 6.70722 7.08443 6.66703 6.97917 6.66667H3.33333C3.22283 6.66667 3.11685 6.62277 3.03871 6.54463C2.96057 6.46649 2.91667 6.36051 2.91667 6.25V5C2.91667 4.88949 2.87277 4.78351 2.79463 4.70537C2.71649 4.62723 2.61051 4.58333 2.5 4.58333C2.38949 4.58333 2.28351 4.62723 2.20537 4.70537C2.12723 4.78351 2.08333 4.88949 2.08333 5V6.25C2.08333 6.58152 2.21503 6.89946 2.44945 7.13388C2.68387 7.3683 3.00181 7.5 3.33333 7.5H6.81667L8.06667 8.6375C8.13926 8.70566 8.23386 8.74557 8.33333 8.75C8.39048 8.74938 8.44701 8.73807 8.5 8.71667C8.57453 8.68414 8.63792 8.63051 8.68234 8.5624C8.72676 8.49428 8.75028 8.41465 8.75 8.33333V3.33333C8.75 3.00181 8.6183 2.68387 8.38388 2.44945C8.14946 2.21503 7.83152 2.08333 7.5 2.08333Z" fill="black"/>
</svg>
