<svg width="14" height="14" viewBox="0 0 14 14" fill="none" xmlns="http://www.w3.org/2000/svg">
<path d="M6.99999 11.76C4.36799 11.76 2.23999 9.63199 2.23999 6.99999C2.23999 4.36799 4.36799 2.23999 6.99999 2.23999C9.63199 2.23999 11.76 4.36799 11.76 6.99999C11.76 9.63199 9.63199 11.76 6.99999 11.76ZM6.99999 2.79999C4.67599 2.79999 2.79999 4.67599 2.79999 6.99999C2.79999 9.32399 4.67599 11.2 6.99999 11.2C9.32399 11.2 11.2 9.32399 11.2 6.99999C11.2 4.67599 9.32399 2.79999 6.99999 2.79999Z" fill="black"/>
<path d="M4.47998 6.71997H9.51998V7.27997H4.47998V6.71997Z" fill="black"/>
<path d="M6.71997 4.47998H7.27997V9.51998H6.71997V4.47998Z" fill="black"/>
</svg>
