<svg width="14" height="14" viewBox="0 0 95 96" fill="none" xmlns="http://www.w3.org/2000/svg">
<path fill-rule="evenodd" clip-rule="evenodd" d="M0 20.793C0 9.60297 9.10297 0.5 20.293 0.5H69.707C80.897 0.5 90 9.60297 90 20.793V60.0085C93.12 63.7635 95 68.5817 95 73.8333C95 85.78 85.28 95.5 73.3333 95.5C68.0817 95.5 63.2635 93.62 59.5085 90.5H20.293C9.10297 90.5 0 81.397 0 70.207V20.793ZM69.707 3.83333H20.293C10.9413 3.83333 3.33333 11.4396 3.33333 20.793V70.207C3.33333 79.5604 10.9413 87.1667 20.293 87.1667H56.2793C56.2265 87.0984 56.1772 87.028 56.1279 86.9575C56.0868 86.8988 56.0458 86.8401 56.0026 86.7825L55.9735 86.7436C55.72 86.4035 55.4688 86.0664 55.2344 85.7116C55.2298 85.705 55.2252 85.698 55.2206 85.6908C55.21 85.6741 55.1993 85.6562 55.1888 85.64C54.6105 84.7566 54.1039 83.8234 53.6589 82.8568C53.6357 82.8059 53.611 82.7561 53.5862 82.7062C53.5574 82.6483 53.5286 82.5904 53.5026 82.5312C53.3428 82.1659 53.2028 81.7916 53.0625 81.4164L53.0534 81.3919C53.0371 81.3484 53.0208 81.305 53.0044 81.2616C52.9337 81.0737 52.8631 80.8862 52.7995 80.6953C52.6812 80.347 52.5805 79.994 52.4805 79.6374C52.3988 79.3424 52.3226 79.047 52.2526 78.7487C52.1776 78.4287 52.1043 78.1069 52.0443 77.7819C51.9726 77.4019 51.9185 77.0178 51.8685 76.6328C51.8592 76.563 51.8494 76.4932 51.8396 76.4234C51.8128 76.2315 51.7859 76.0393 51.7676 75.8451C51.7059 75.1784 51.6667 74.5083 51.6667 73.8333C51.6667 73.2717 51.708 72.7183 51.7513 72.1667C52 72.5 51.7513 73.0883 51.7513 72.1667L52.2721 68.8333C54.5388 59.2933 63.11 52.1667 73.3333 52.1667C74.0083 52.1667 74.6784 52.2058 75.3451 52.2708C75.5334 52.2887 75.7205 52.3139 75.907 52.339C75.9813 52.349 76.0555 52.359 76.1296 52.3685C76.5179 52.4185 76.9018 52.4759 77.2852 52.5475C77.6085 52.6075 77.9271 52.6793 78.2454 52.7526C78.5471 52.8226 78.8455 52.9004 79.1439 52.9837C79.4955 53.0821 79.8438 53.1845 80.1888 53.2995C80.4002 53.3709 80.6098 53.4503 80.8185 53.5292C80.8484 53.5406 80.8783 53.5519 80.9082 53.5632C80.9676 53.5855 81.027 53.6077 81.0864 53.6299C81.4034 53.7484 81.7192 53.8664 82.028 54.0026C82.0955 54.0328 82.1614 54.066 82.2274 54.0993C82.2852 54.1284 82.3432 54.1576 82.4023 54.1849C83.3373 54.6182 84.241 55.1094 85.0977 55.666C85.1168 55.6785 85.1365 55.6901 85.1562 55.7018C85.1759 55.7134 85.1956 55.7251 85.2148 55.7376C85.5815 55.9793 85.9326 56.2393 86.2826 56.5026C86.338 56.5442 86.3945 56.5835 86.451 56.6228C86.5237 56.6734 86.5963 56.724 86.6667 56.7793V20.793C86.6667 11.4396 79.0587 3.83333 69.707 3.83333ZM31.9499 12.7493C32.2499 12.3993 32.6634 12.2061 33.0892 12.1732C33.515 12.1403 33.9518 12.2687 34.3001 12.5671C34.9985 13.1654 35.0775 14.2157 34.4792 14.9141L23.0501 28.2474C22.7218 28.6324 22.2555 28.8301 21.7839 28.8301C21.4339 28.8301 21.0845 28.723 20.7845 28.498L13.1673 22.7819C12.4307 22.2302 12.2787 21.1862 12.832 20.4512C13.3837 19.7145 14.4293 19.5675 15.166 20.1191L21.5365 24.8978L31.9499 12.7493ZM43.3333 22.1667C43.3333 21.245 44.08 20.5 45 20.5H75C75.92 20.5 76.6667 21.245 76.6667 22.1667C76.6667 23.0883 75.92 23.8333 75 23.8333H45C44.08 23.8333 43.3333 23.0883 43.3333 22.1667ZM31.9499 36.0827C32.2499 35.7327 32.6634 35.5394 33.0892 35.5065C33.515 35.4736 33.9518 35.6021 34.3001 35.9004C34.9985 36.4987 35.0775 37.5491 34.4792 38.2474L23.0501 51.5807C22.7218 51.9657 22.2555 52.1634 21.7839 52.1634C21.4339 52.1634 21.0845 52.0564 20.7845 51.8314L13.1673 46.1152C12.4307 45.5636 12.2787 44.5195 12.832 43.7845C13.3837 43.0478 14.4293 42.9008 15.166 43.4525L21.5365 48.2311L31.9499 36.0827ZM43.3333 45.5C43.3333 44.5783 44.08 43.8333 45 43.8333H75C75.92 43.8333 76.6667 44.5783 76.6667 45.5C76.6667 46.4217 75.92 47.1667 75 47.1667H45C44.08 47.1667 43.3333 46.4217 43.3333 45.5ZM75.2669 55.6042C74.6269 55.5342 73.9833 55.5 73.3333 55.5C63.225 55.5 55 63.725 55 73.8333C55 74.4833 55.0358 75.127 55.1042 75.7637C55.1091 75.8106 55.116 75.8561 55.1229 75.9015C55.1277 75.9336 55.1326 75.9656 55.1367 75.998C55.2034 76.5614 55.2902 77.1228 55.4102 77.6745C55.4178 77.7129 55.4279 77.7503 55.4379 77.7876C55.4453 77.8149 55.4526 77.8423 55.459 77.8698C55.5873 78.4298 55.7364 78.9834 55.9147 79.5267C55.9251 79.5578 55.937 79.5887 55.9489 79.6196C55.962 79.6534 55.975 79.6873 55.9863 79.722C56.168 80.257 56.3732 80.7825 56.6048 81.2975C56.6269 81.3481 56.6507 81.3971 56.6744 81.446C56.6882 81.4746 56.702 81.5031 56.7155 81.5319C56.9455 82.0252 57.1941 82.5088 57.4674 82.9805C57.5096 83.0542 57.5523 83.1238 57.5956 83.1942C57.6071 83.2129 57.6186 83.2317 57.6302 83.2507C57.9002 83.7007 58.191 84.1391 58.4993 84.5658C58.5508 84.6368 58.6039 84.7068 58.6569 84.7766C58.676 84.8018 58.6952 84.827 58.7142 84.8522C59.0275 85.2656 59.3587 85.6651 59.707 86.0534C59.787 86.1417 59.8662 86.2304 59.9479 86.3171C60.3146 86.7104 60.6969 87.0882 61.1003 87.4499C64.3486 90.3715 68.6317 92.1667 73.3333 92.1667C83.4417 92.1667 91.6667 83.9417 91.6667 73.8333C91.6667 69.1367 89.8779 64.8615 86.9629 61.6165C86.5946 61.2065 86.2089 60.8131 85.8105 60.4414C85.7305 60.3647 85.6497 60.2918 85.5664 60.2168C85.1731 59.8635 84.7657 59.5276 84.3457 59.2109C84.2557 59.1426 84.1639 59.0758 84.0723 59.0091C83.6406 58.6958 83.1991 58.4052 82.7441 58.1302C82.7167 58.1135 82.6892 58.0965 82.6616 58.0795L82.6599 58.0784C82.6026 58.0431 82.5451 58.0075 82.487 57.974C82.0103 57.699 81.5205 57.4472 81.0221 57.2155C80.9855 57.1988 80.9492 57.1811 80.913 57.1634C80.8769 57.1457 80.8407 57.128 80.804 57.1113C80.284 56.878 79.7522 56.6697 79.2122 56.4863C79.1506 56.4647 79.0916 56.4412 79.0299 56.4212C78.4833 56.2412 77.9266 56.0906 77.3633 55.9622C77.3316 55.9556 77.3011 55.9467 77.2706 55.9378C77.24 55.929 77.2094 55.9201 77.1777 55.9134C76.6227 55.7934 76.0582 55.7083 75.4915 55.64C75.4577 55.6355 75.4239 55.6294 75.3901 55.6234C75.3491 55.6161 75.308 55.6088 75.2669 55.6042ZM81.9661 64.6667C82.2295 64.2883 82.6208 64.0522 83.0404 63.9766C83.46 63.9009 83.9055 63.9858 84.2839 64.25C85.0405 64.7767 85.2255 65.816 84.7005 66.571L74.3457 81.4505C74.079 81.8322 73.6664 82.0871 73.2064 82.1504C73.1297 82.162 73.0503 82.1667 72.9753 82.1667C72.5919 82.1667 72.2189 82.0357 71.9206 81.7891L63.9421 75.2396C63.2287 74.6579 63.1259 73.6075 63.7109 72.8958C64.2943 72.1858 65.3479 72.0797 66.0579 72.6647L72.6367 78.0651L81.9661 64.6667Z" fill="black"/>
<path fill-rule="evenodd" clip-rule="evenodd" d="M20.293 0.5C9.10297 0.5 0 9.60297 0 20.793V70.207C0 81.397 9.10297 90.5 20.293 90.5H59.5085C63.2635 93.62 68.0817 95.5 73.3333 95.5C85.28 95.5 95 85.78 95 73.8333C95 68.5817 93.12 63.7635 90 60.0085V20.793C90 9.60297 80.897 0.5 69.707 0.5H20.293ZM69.707 3.83333H20.293C10.9413 3.83333 3.33333 11.4396 3.33333 20.793V70.207C3.33333 79.5604 10.9413 87.1667 20.293 87.1667H56.2793C56.2265 87.0984 56.1772 87.028 56.1279 86.9575C56.0868 86.8988 56.0458 86.8401 56.0026 86.7825L55.9735 86.7436C55.72 86.4035 55.4688 86.0664 55.2344 85.7116C55.2298 85.705 55.2252 85.698 55.2206 85.6908C55.21 85.6741 55.1993 85.6562 55.1888 85.64C54.6105 84.7566 54.1039 83.8234 53.6589 82.8568C53.6357 82.8059 53.611 82.7561 53.5862 82.7062C53.5574 82.6483 53.5286 82.5904 53.5026 82.5312C53.3428 82.1659 53.2028 81.7916 53.0625 81.4164L53.0534 81.3919L53.0044 81.2616C52.9337 81.0737 52.8631 80.8862 52.7995 80.6953C52.6812 80.347 52.5805 79.994 52.4805 79.6374C52.3988 79.3424 52.3226 79.047 52.2526 78.7487C52.1776 78.4287 52.1043 78.1069 52.0443 77.7819C51.9726 77.4019 51.9185 77.0178 51.8685 76.6328C51.8592 76.563 51.8494 76.4932 51.8396 76.4234C51.8128 76.2315 51.7859 76.0393 51.7676 75.8451C51.7059 75.1784 51.6667 74.5083 51.6667 73.8333C51.6667 73.2717 51.708 72.7183 51.7513 72.1667L52.2721 68.8333C54.5388 59.2933 63.11 52.1667 73.3333 52.1667C74.0083 52.1667 74.6784 52.2058 75.3451 52.2708C75.5334 52.2887 75.7205 52.3139 75.907 52.339C75.9813 52.349 76.0555 52.359 76.1296 52.3685C76.5179 52.4185 76.9018 52.4759 77.2852 52.5475C77.6085 52.6075 77.9271 52.6793 78.2454 52.7526C78.5471 52.8226 78.8455 52.9004 79.1439 52.9837C79.4955 53.0821 79.8438 53.1845 80.1888 53.2995C80.4002 53.3709 80.6098 53.4503 80.8185 53.5292L80.9082 53.5632L81.0864 53.6299C81.4034 53.7484 81.7192 53.8664 82.028 54.0026C82.0955 54.0328 82.1614 54.066 82.2274 54.0993C82.2852 54.1284 82.3432 54.1576 82.4023 54.1849C83.3373 54.6182 84.241 55.1094 85.0977 55.666C85.1168 55.6785 85.1365 55.6901 85.1562 55.7018C85.1759 55.7134 85.1956 55.7251 85.2148 55.7376C85.5815 55.9793 85.9326 56.2393 86.2826 56.5026C86.338 56.5442 86.3945 56.5835 86.451 56.6228C86.5237 56.6734 86.5963 56.724 86.6667 56.7793V20.793C86.6667 11.4396 79.0587 3.83333 69.707 3.83333ZM75.2669 55.6042C74.6269 55.5342 73.9833 55.5 73.3333 55.5C63.225 55.5 55 63.725 55 73.8333C55 74.4833 55.0358 75.127 55.1042 75.7637C55.1091 75.8106 55.116 75.8561 55.1229 75.9015C55.1277 75.9336 55.1326 75.9656 55.1367 75.998C55.2034 76.5614 55.2902 77.1228 55.4102 77.6745C55.4178 77.7129 55.4279 77.7503 55.4379 77.7876C55.4453 77.8149 55.4526 77.8423 55.459 77.8698C55.5873 78.4298 55.7364 78.9834 55.9147 79.5267C55.9251 79.5578 55.937 79.5887 55.9489 79.6196C55.962 79.6534 55.975 79.6873 55.9863 79.722C56.168 80.257 56.3732 80.7825 56.6048 81.2975C56.6269 81.3481 56.6507 81.3971 56.6744 81.446C56.6882 81.4746 56.702 81.5031 56.7155 81.5319C56.9455 82.0252 57.1941 82.5088 57.4674 82.9805C57.5096 83.0542 57.5523 83.1238 57.5956 83.1942L57.6302 83.2507C57.9002 83.7007 58.191 84.1391 58.4993 84.5658C58.5508 84.6368 58.6039 84.7068 58.6569 84.7766L58.7142 84.8522C59.0275 85.2656 59.3587 85.6651 59.707 86.0534C59.787 86.1417 59.8662 86.2304 59.9479 86.3171C60.3146 86.7104 60.6969 87.0882 61.1003 87.4499C64.3486 90.3715 68.6317 92.1667 73.3333 92.1667C83.4417 92.1667 91.6667 83.9417 91.6667 73.8333C91.6667 69.1367 89.8779 64.8615 86.9629 61.6165C86.5946 61.2065 86.2089 60.8131 85.8105 60.4414C85.7305 60.3647 85.6497 60.2918 85.5664 60.2168C85.1731 59.8635 84.7657 59.5276 84.3457 59.2109C84.2557 59.1426 84.1639 59.0758 84.0723 59.0091C83.6406 58.6958 83.1991 58.4052 82.7441 58.1302C82.7167 58.1135 82.6892 58.0965 82.6616 58.0795L82.6599 58.0784C82.6026 58.0431 82.5451 58.0075 82.487 57.974C82.0103 57.699 81.5205 57.4472 81.0221 57.2155C80.9855 57.1988 80.9492 57.1811 80.913 57.1634C80.8769 57.1457 80.8407 57.128 80.804 57.1113C80.284 56.878 79.7522 56.6697 79.2122 56.4863C79.1506 56.4647 79.0916 56.4412 79.0299 56.4212C78.4833 56.2412 77.9266 56.0906 77.3633 55.9622C77.3316 55.9556 77.3011 55.9467 77.2706 55.9378C77.24 55.929 77.2094 55.9201 77.1777 55.9134C76.6227 55.7934 76.0582 55.7083 75.4915 55.64C75.4577 55.6355 75.4239 55.6294 75.3901 55.6234C75.3491 55.6161 75.308 55.6088 75.2669 55.6042Z" fill="black"/>
</svg>
