<svg width="20" height="20" viewBox="0 0 20 20" fill="none" xmlns="http://www.w3.org/2000/svg">
<path fill-rule="evenodd" clip-rule="evenodd" d="M19.6 9.9999C19.6 15.3018 15.3019 19.5999 10 19.5999C4.69807 19.5999 0.400002 15.3018 0.400002 9.9999C0.400002 4.69797 4.69807 0.399902 10 0.399902C15.3019 0.399902 19.6 4.69797 19.6 9.9999ZM11.2 14.7999C11.2 15.4626 10.6627 15.9999 10 15.9999C9.33726 15.9999 8.8 15.4626 8.8 14.7999C8.8 14.1372 9.33726 13.5999 10 13.5999C10.6627 13.5999 11.2 14.1372 11.2 14.7999ZM10 3.9999C9.33726 3.9999 8.8 4.53716 8.8 5.1999V9.9999C8.8 10.6626 9.33726 11.1999 10 11.1999C10.6627 11.1999 11.2 10.6626 11.2 9.9999V5.1999C11.2 4.53716 10.6627 3.9999 10 3.9999Z" fill="#821744"/>
</svg>
