<svg width="18" height="20" viewBox="0 0 18 20" fill="none" xmlns="http://www.w3.org/2000/svg">
<path d="M17 9.47315L9.43557 17.0376C8.50887 17.9643 7.25199 18.4849 5.94144 18.4849C4.63089 18.4849 3.37401 17.9643 2.44731 17.0376C1.52061 16.1109 1 14.854 1 13.5435C1 12.2329 1.52061 10.976 2.44731 10.0493L10.0117 2.4849C10.6295 1.8671 11.4675 1.52002 12.3412 1.52002C13.2149 1.52002 14.0528 1.8671 14.6706 2.4849C15.2884 3.1027 15.6355 3.94061 15.6355 4.81431C15.6355 5.68801 15.2884 6.52593 14.6706 7.14373L7.09792 14.7082C6.78902 15.0171 6.37006 15.1906 5.93321 15.1906C5.49636 15.1906 5.0774 15.0171 4.7685 14.7082C4.4596 14.3993 4.28606 13.9803 4.28606 13.5435C4.28606 13.1066 4.4596 12.6876 4.7685 12.3787L11.7568 5.39873" stroke="#767E8C" stroke-width="1.5" stroke-linecap="round" stroke-linejoin="round"/>
</svg>
