<svg width="24" height="34" viewBox="0 0 202 212" fill="none" xmlns="http://www.w3.org/2000/svg">
<path d="M200.331 137.99C170.336 234.037 30.4287 234.768 1.36628 137.836" stroke="#8C123F" stroke-width="2"/>
<path d="M1.01525 72.3516C32.638 -23.1715 172.537 -21.5251 199.948 75.8872" stroke="#8C123F" stroke-width="2"/>
<path d="M77.3613 100.883V101.289C77.3613 101.691 77.6868 102.016 78.0884 102.016H81.5656C81.7868 102.016 81.9661 101.837 81.9661 101.616C81.9661 101.581 81.9706 101.546 81.9797 101.512L82.0951 101.081C82.1704 100.799 82.2778 100.527 82.4153 100.27L82.9355 99.2973C83.2579 98.6945 83.6355 98.1227 84.0633 97.5894L84.1473 97.4848L84.8743 96.352L85.6014 95.4457L85.7056 95.3158C86.1203 94.7989 86.5714 94.3123 87.0555 93.8598L87.7826 93.1801L88.2844 92.645C88.7006 92.2012 89.1546 91.7945 89.6414 91.4294L90.0279 91.1666C90.3077 90.9764 90.6048 90.8131 90.9152 90.6788C91.2495 90.5342 91.5682 90.356 91.8664 90.1469L92.3873 89.7816L92.6426 89.6225C92.9541 89.4284 93.2241 89.1747 93.4372 88.8759C93.5449 88.7249 93.6674 88.585 93.8028 88.4583L93.8415 88.4222C94.0026 88.2716 94.1483 88.1052 94.2764 87.9256L94.2864 87.9115C94.4736 87.6491 94.6234 87.362 94.7317 87.0584L94.9742 86.3783C95.0268 86.2307 95.0903 86.0872 95.1642 85.949L95.3242 85.6499C95.4645 85.3876 95.5379 85.0947 95.5379 84.7972V82.9847V54.5843C95.5379 54.4875 95.5183 54.3916 95.4802 54.3026C95.278 53.8301 95.6247 53.3047 96.1386 53.3047H106.253C106.755 53.3047 107.057 53.8592 106.787 54.2811C106.721 54.3832 106.686 54.5021 106.686 54.6235V55.0027C106.686 56.067 107.549 56.9298 108.613 56.9298H110.608C111.011 56.9298 111.363 56.659 111.468 56.2697C111.511 56.1088 111.598 55.9632 111.72 55.8495L111.726 55.8434C111.912 55.6692 112.018 55.4256 112.018 55.1706V51.0369C112.018 50.3337 111.655 49.6802 111.059 49.3082C110.735 49.1068 110.362 49 109.981 49H91.963C91.3168 49 90.7105 49.3123 90.3353 49.8384C90.0937 50.1773 89.9638 50.5831 89.9638 50.9992V55.09C89.9638 55.3964 90.0909 55.6892 90.3147 55.8985C90.4033 55.9813 90.4777 56.0781 90.5349 56.185L90.639 56.3796C90.832 56.7406 90.9312 57.1443 90.9274 57.5536L90.6909 82.9847V84.2833C90.6909 84.6207 90.6076 84.9528 90.4485 85.2503C90.1286 85.8484 89.6914 86.3757 89.163 86.8008L89.0928 86.8572L87.9954 87.516L86.3285 88.6488L85.0693 89.7816L83.4202 91.2465L80.9967 93.8598L80.0272 94.9926C79.5444 95.5945 79.1375 96.2536 78.816 96.955L78.5731 97.4848L78.0884 98.3911L77.7061 99.1058C77.6379 99.2333 77.5793 99.3657 77.5308 99.5019C77.4186 99.8163 77.3613 100.148 77.3613 100.481V100.883Z" fill="#B63142" stroke="#B63142"/>
<mask id="path-4-inside-1_337_156" fill="white">
<ellipse cx="82.2091" cy="126.938" rx="7.27065" ry="6.79693"/>
</mask>
<path d="M79.4798 126.938C79.4798 125.827 79.98 124.945 80.5212 124.439C81.0508 123.944 81.6715 123.735 82.2091 123.735V143.735C91.1021 143.735 99.4798 136.839 99.4798 126.938H79.4798ZM82.2091 123.735C82.7467 123.735 83.3675 123.944 83.8971 124.439C84.4382 124.945 84.9385 125.827 84.9385 126.938H64.9385C64.9385 136.839 73.3161 143.735 82.2091 143.735V123.735ZM84.9385 126.938C84.9385 128.05 84.4382 128.931 83.8971 129.437C83.3675 129.932 82.7467 130.141 82.2091 130.141V110.141C73.3161 110.141 64.9385 117.038 64.9385 126.938H84.9385ZM82.2091 130.141C81.6715 130.141 81.0508 129.932 80.5212 129.437C79.98 128.931 79.4798 128.05 79.4798 126.938H99.4798C99.4798 117.038 91.1021 110.141 82.2091 110.141V130.141Z" fill="#8C123F" mask="url(#path-4-inside-1_337_156)"/>
<mask id="path-6-inside-2_337_156" fill="white">
<ellipse cx="80.2707" cy="106.094" rx="7.27065" ry="6.79693"/>
</mask>
<path d="M77.5413 106.094C77.5413 104.983 78.0416 104.101 78.5827 103.595C79.1123 103.1 79.7331 102.891 80.2706 102.891V122.891C89.1637 122.891 97.5413 115.995 97.5413 106.094H77.5413ZM80.2706 102.891C80.8082 102.891 81.429 103.1 81.9586 103.595C82.4997 104.101 83 104.983 83 106.094H63C63 115.995 71.3776 122.891 80.2706 122.891V102.891ZM83 106.094C83 107.206 82.4997 108.087 81.9586 108.593C81.429 109.088 80.8082 109.297 80.2706 109.297V89.2973C71.3776 89.2973 63 96.1936 63 106.094H83ZM80.2706 109.297C79.7331 109.297 79.1123 109.088 78.5827 108.593C78.0416 108.087 77.5413 107.206 77.5413 106.094H97.5413C97.5413 96.1936 89.1637 89.2973 80.2706 89.2973V109.297Z" fill="#B63142" mask="url(#path-6-inside-2_337_156)"/>
<path d="M77.5413 106.094C77.5413 104.983 78.0416 104.101 78.5827 103.595C79.1123 103.1 79.7331 102.891 80.2706 102.891V122.891C89.1637 122.891 97.5413 115.995 97.5413 106.094H77.5413ZM80.2706 102.891C80.8082 102.891 81.429 103.1 81.9586 103.595C82.4997 104.101 83 104.983 83 106.094H63C63 115.995 71.3776 122.891 80.2706 122.891V102.891ZM83 106.094C83 107.206 82.4997 108.087 81.9586 108.593C81.429 109.088 80.8082 109.297 80.2706 109.297V89.2973C71.3776 89.2973 63 96.1936 63 106.094H83ZM80.2706 109.297C79.7331 109.297 79.1123 109.088 78.5827 108.593C78.0416 108.087 77.5413 107.206 77.5413 106.094H97.5413C97.5413 96.1936 89.1637 89.2973 80.2706 89.2973V109.297Z" fill="#B63142" mask="url(#path-6-inside-2_337_156)"/>
<mask id="path-8-inside-3_337_156" fill="white">
<ellipse cx="109.838" cy="62.1407" rx="7.27065" ry="6.79693"/>
</mask>
<path d="M107.108 62.1407C107.108 61.0294 107.608 60.1477 108.15 59.6418C108.679 59.1468 109.3 58.9377 109.838 58.9377V78.9377C118.731 78.9377 127.108 72.0414 127.108 62.1407H107.108ZM109.838 58.9377C110.375 58.9377 110.996 59.1468 111.525 59.6418C112.067 60.1477 112.567 61.0294 112.567 62.1407H92.5669C92.5669 72.0414 100.945 78.9377 109.838 78.9377V58.9377ZM112.567 62.1407C112.567 63.252 112.067 64.1337 111.525 64.6396C110.996 65.1347 110.375 65.3438 109.838 65.3438V45.3438C100.945 45.3438 92.5669 52.2401 92.5669 62.1407H112.567ZM109.838 65.3438C109.3 65.3438 108.679 65.1347 108.15 64.6396C107.608 64.1337 107.108 63.252 107.108 62.1407H127.108C127.108 52.2401 118.731 45.3438 109.838 45.3438V65.3438Z" fill="#B63142" mask="url(#path-8-inside-3_337_156)"/>
<path d="M107.108 62.1407C107.108 61.0294 107.608 60.1477 108.15 59.6418C108.679 59.1468 109.3 58.9377 109.838 58.9377V78.9377C118.731 78.9377 127.108 72.0414 127.108 62.1407H107.108ZM109.838 58.9377C110.375 58.9377 110.996 59.1468 111.525 59.6418C112.067 60.1477 112.567 61.0294 112.567 62.1407H92.5669C92.5669 72.0414 100.945 78.9377 109.838 78.9377V58.9377ZM112.567 62.1407C112.567 63.252 112.067 64.1337 111.525 64.6396C110.996 65.1347 110.375 65.3438 109.838 65.3438V45.3438C100.945 45.3438 92.5669 52.2401 92.5669 62.1407H112.567ZM109.838 65.3438C109.3 65.3438 108.679 65.1347 108.15 64.6396C107.608 64.1337 107.108 63.252 107.108 62.1407H127.108C127.108 52.2401 118.731 45.3438 109.838 45.3438V65.3438Z" fill="#B63142" mask="url(#path-8-inside-3_337_156)"/>
<mask id="path-10-inside-4_337_156" fill="white">
<ellipse cx="109.838" cy="78.4534" rx="7.27065" ry="6.79693"/>
</mask>
<path d="M107.108 78.4534C107.108 77.3421 107.608 76.4604 108.15 75.9545C108.679 75.4594 109.3 75.2503 109.838 75.2503V95.2503C118.731 95.2503 127.108 88.354 127.108 78.4534H107.108ZM109.838 75.2503C110.375 75.2503 110.996 75.4594 111.525 75.9545C112.067 76.4604 112.567 77.3421 112.567 78.4534H92.5669C92.5669 88.354 100.945 95.2503 109.838 95.2503V75.2503ZM112.567 78.4534C112.567 79.5647 112.067 80.4464 111.525 80.9523C110.996 81.4473 110.375 81.6564 109.838 81.6564V61.6564C100.945 61.6564 92.5669 68.5527 92.5669 78.4534H112.567ZM109.838 81.6564C109.3 81.6564 108.679 81.4473 108.15 80.9523C107.608 80.4464 107.108 79.5647 107.108 78.4534H127.108C127.108 68.5527 118.731 61.6564 109.838 61.6564V81.6564Z" fill="#C75E4B" mask="url(#path-10-inside-4_337_156)"/>
<path d="M107.108 78.4534C107.108 77.3421 107.608 76.4604 108.15 75.9545C108.679 75.4594 109.3 75.2503 109.838 75.2503V95.2503C118.731 95.2503 127.108 88.354 127.108 78.4534H107.108ZM109.838 75.2503C110.375 75.2503 110.996 75.4594 111.525 75.9545C112.067 76.4604 112.567 77.3421 112.567 78.4534H92.5669C92.5669 88.354 100.945 95.2503 109.838 95.2503V75.2503ZM112.567 78.4534C112.567 79.5647 112.067 80.4464 111.525 80.9523C110.996 81.4473 110.375 81.6564 109.838 81.6564V61.6564C100.945 61.6564 92.5669 68.5527 92.5669 78.4534H112.567ZM109.838 81.6564C109.3 81.6564 108.679 81.4473 108.15 80.9523C107.608 80.4464 107.108 79.5647 107.108 78.4534H127.108C127.108 68.5527 118.731 61.6564 109.838 61.6564V81.6564Z" fill="#C75E4B" mask="url(#path-10-inside-4_337_156)"/>
<mask id="path-12-inside-5_337_156" fill="white">
<ellipse cx="120.986" cy="123.313" rx="7.27065" ry="6.79693"/>
</mask>
<path d="M118.257 123.313C118.257 122.202 118.757 121.32 119.299 120.814C119.828 120.319 120.449 120.11 120.986 120.11V140.11C129.879 140.11 138.257 133.214 138.257 123.313H118.257ZM120.986 120.11C121.524 120.11 122.145 120.319 122.674 120.814C123.216 121.32 123.716 122.202 123.716 123.313H103.716C103.716 133.214 112.093 140.11 120.986 140.11V120.11ZM123.716 123.313C123.716 124.424 123.216 125.306 122.674 125.812C122.145 126.307 121.524 126.516 120.986 126.516V106.516C112.093 106.516 103.716 113.412 103.716 123.313H123.716ZM120.986 126.516C120.449 126.516 119.828 126.307 119.299 125.812C118.757 125.306 118.257 124.424 118.257 123.313H138.257C138.257 113.412 129.879 106.516 120.986 106.516V126.516Z" fill="#C75E4B" mask="url(#path-12-inside-5_337_156)"/>
<path d="M118.257 123.313C118.257 122.202 118.757 121.32 119.299 120.814C119.828 120.319 120.449 120.11 120.986 120.11V140.11C129.879 140.11 138.257 133.214 138.257 123.313H118.257ZM120.986 120.11C121.524 120.11 122.145 120.319 122.674 120.814C123.216 121.32 123.716 122.202 123.716 123.313H103.716C103.716 133.214 112.093 140.11 120.986 140.11V120.11ZM123.716 123.313C123.716 124.424 123.216 125.306 122.674 125.812C122.145 126.307 121.524 126.516 120.986 126.516V106.516C112.093 106.516 103.716 113.412 103.716 123.313H123.716ZM120.986 126.516C120.449 126.516 119.828 126.307 119.299 125.812C118.757 125.306 118.257 124.424 118.257 123.313H138.257C138.257 113.412 129.879 106.516 120.986 106.516V126.516Z" fill="#C75E4B" mask="url(#path-12-inside-5_337_156)"/>
<mask id="path-14-inside-6_337_156" fill="white">
<ellipse cx="120.986" cy="140.985" rx="7.27065" ry="6.79693"/>
</mask>
<path d="M118.257 140.985C118.257 139.874 118.757 138.992 119.299 138.486C119.828 137.991 120.449 137.782 120.986 137.782V157.782C129.879 157.782 138.257 150.886 138.257 140.985H118.257ZM120.986 137.782C121.524 137.782 122.145 137.991 122.674 138.486C123.216 138.992 123.716 139.874 123.716 140.985H103.716C103.716 150.886 112.093 157.782 120.986 157.782V137.782ZM123.716 140.985C123.716 142.096 123.216 142.978 122.674 143.484C122.145 143.979 121.524 144.188 120.986 144.188V124.188C112.093 124.188 103.716 131.085 103.716 140.985H123.716ZM120.986 144.188C120.449 144.188 119.828 143.979 119.299 143.484C118.757 142.978 118.257 142.096 118.257 140.985H138.257C138.257 131.085 129.879 124.188 120.986 124.188V144.188Z" fill="#8C123F" mask="url(#path-14-inside-6_337_156)"/>
<path d="M79.7109 165.454C79.7109 166.835 80.8302 167.954 82.2109 167.954C83.5916 167.954 84.7109 166.835 84.7109 165.454H79.7109ZM79.7109 130.11V165.454H84.7109V130.11H79.7109Z" fill="#8C123F"/>
<path d="M118.487 165.454C118.487 166.835 119.607 167.954 120.987 167.954C122.368 167.954 123.487 166.835 123.487 165.454H118.487ZM118.487 145.516V165.454H123.487V145.516H118.487Z" fill="#8C123F"/>
<path d="M82.2095 165.681L120.988 165.454" stroke="#8C123F" stroke-width="5" stroke-linecap="round"/>
<path d="M113.019 84.2223L110.854 83.0166H106.285V83.5333L106.293 83.5558C106.446 83.9953 106.689 84.3982 107.006 84.7389C107.326 85.0826 107.679 85.3933 108.061 85.6667L108.209 85.7723L109.892 86.6335L110.854 87.1502L112.538 88.0113L114.221 89.0447L115.905 90.4226L117.107 91.6282L118.55 93.5228L119.753 97.1396V118.496H123.842V96.2785L123.361 94.2117L122.399 92.3171L121.437 90.9393L119.753 89.0447L117.588 87.1502L115.183 85.4279L113.019 84.2223Z" fill="#C75E4B" stroke="#C75E4B"/>
<path d="M194.785 106.708C194.785 158.583 152.732 200.637 100.856 200.637C48.9807 200.637 6.92725 158.583 6.92725 106.708C6.92725 54.832 48.9807 12.7785 100.856 12.7785C152.732 12.7785 194.785 54.832 194.785 106.708Z" stroke="#8C123F" stroke-width="6"/>
</svg>
