<svg  viewBox="0 0 774 175" fill="none" xmlns="http://www.w3.org/2000/svg">
  <path
    d="M411.105 161.45L411.525 141.5L437.88 116.51H457.41L432.105 142.235L423.6 149.165L411.105 161.45ZM397.56 173V95.09H413.94V173H397.56ZM439.665 173L420.555 149.27L430.845 136.565L459.51 173H439.665Z"
    fill="#8640FF"
  />
  <path
    d="M466.876 173V116.51H483.256V173H466.876ZM475.066 108.635C472.056 108.635 469.606 107.76 467.716 106.01C465.826 104.26 464.881 102.09 464.881 99.5C464.881 96.91 465.826 94.74 467.716 92.99C469.606 91.24 472.056 90.365 475.066 90.365C478.076 90.365 480.526 91.205 482.416 92.885C484.306 94.495 485.251 96.595 485.251 99.185C485.251 101.915 484.306 104.19 482.416 106.01C480.596 107.76 478.146 108.635 475.066 108.635Z"
    fill="#8640FF"
  />
  <path
    d="M525.758 173.84C519.668 173.84 514.243 172.615 509.483 170.165C504.723 167.645 500.978 164.18 498.248 159.77C495.588 155.36 494.258 150.355 494.258 144.755C494.258 139.085 495.588 134.08 498.248 129.74C500.978 125.33 504.723 121.9 509.483 119.45C514.243 116.93 519.668 115.67 525.758 115.67C531.708 115.67 536.888 116.93 541.298 119.45C545.708 121.9 548.963 125.435 551.063 130.055L538.358 136.88C536.888 134.22 535.033 132.26 532.793 131C530.623 129.74 528.243 129.11 525.653 129.11C522.853 129.11 520.333 129.74 518.093 131C515.853 132.26 514.068 134.045 512.738 136.355C511.478 138.665 510.848 141.465 510.848 144.755C510.848 148.045 511.478 150.845 512.738 153.155C514.068 155.465 515.853 157.25 518.093 158.51C520.333 159.77 522.853 160.4 525.653 160.4C528.243 160.4 530.623 159.805 532.793 158.615C535.033 157.355 536.888 155.36 538.358 152.63L551.063 159.56C548.963 164.11 545.708 167.645 541.298 170.165C536.888 172.615 531.708 173.84 525.758 173.84Z"
    fill="#8640FF"
  />
  <path
    d="M573.732 161.45L574.152 141.5L600.507 116.51H620.037L594.732 142.235L586.227 149.165L573.732 161.45ZM560.187 173V95.09H576.567V173H560.187ZM602.292 173L583.182 149.27L593.472 136.565L622.137 173H602.292Z"
    fill="#8640FF"
  />
  <path
    d="M654.025 173.84C648.005 173.84 642.65 172.58 637.96 170.06C633.34 167.54 629.665 164.11 626.935 159.77C624.275 155.36 622.945 150.355 622.945 144.755C622.945 139.085 624.275 134.08 626.935 129.74C629.665 125.33 633.34 121.9 637.96 119.45C642.65 116.93 648.005 115.67 654.025 115.67C659.975 115.67 665.295 116.93 669.985 119.45C674.675 121.9 678.35 125.295 681.01 129.635C683.67 133.975 685 139.015 685 144.755C685 150.355 683.67 155.36 681.01 159.77C678.35 164.11 674.675 167.54 669.985 170.06C665.295 172.58 659.975 173.84 654.025 173.84ZM654.025 160.4C656.755 160.4 659.205 159.77 661.375 158.51C663.545 157.25 665.26 155.465 666.52 153.155C667.78 150.775 668.41 147.975 668.41 144.755C668.41 141.465 667.78 138.665 666.52 136.355C665.26 134.045 663.545 132.26 661.375 131C659.205 129.74 656.755 129.11 654.025 129.11C651.295 129.11 648.845 129.74 646.675 131C644.505 132.26 642.755 134.045 641.425 136.355C640.165 138.665 639.535 141.465 639.535 144.755C639.535 147.975 640.165 150.775 641.425 153.155C642.755 155.465 644.505 157.25 646.675 158.51C648.845 159.77 651.295 160.4 654.025 160.4Z"
    fill="#8640FF"
  />
  <path
    d="M697.944 173V115.25C697.944 108.88 699.834 103.805 703.614 100.025C707.394 96.175 712.784 94.25 719.784 94.25C722.164 94.25 724.439 94.495 726.609 94.985C728.849 95.475 730.739 96.245 732.279 97.295L727.974 109.16C727.064 108.53 726.049 108.04 724.929 107.69C723.809 107.34 722.619 107.165 721.359 107.165C718.979 107.165 717.124 107.865 715.794 109.265C714.534 110.595 713.904 112.625 713.904 115.355V120.605L714.324 127.64V173H697.944ZM689.229 130.37V117.77H728.394V130.37H689.229Z"
    fill="#8640FF"
  />
  <path
    d="M739.369 173V115.25C739.369 108.88 741.259 103.805 745.039 100.025C748.819 96.175 754.209 94.25 761.209 94.25C763.589 94.25 765.864 94.495 768.034 94.985C770.274 95.475 772.164 96.245 773.704 97.295L769.399 109.16C768.489 108.53 767.474 108.04 766.354 107.69C765.234 107.34 764.044 107.165 762.784 107.165C760.404 107.165 758.549 107.865 757.219 109.265C755.959 110.595 755.329 112.625 755.329 115.355V120.605L755.749 127.64V173H739.369ZM730.654 130.37V117.77H769.819V130.37H730.654Z"
    fill="#8640FF"
  />
  <path
    d="M95.5888 146.68V172.323H0V148.84L54.38 84.4226H2.37629V58.7795H93.436V83.3377L39.9192 146.68H95.5888Z"
    fill="white"
  />
  <path
    d="M164.744 148.505C176.94 148.505 185.603 144.743 192.163 135.81L215.235 150.655C206.39 163.583 191.716 175 163.881 175C126.978 175 103.032 149.357 103.032 115.531C103.032 82.5671 129.141 56.0621 161.728 56.0621C198.408 56.0621 220.201 84.7167 220.201 113.158C220.201 118.117 219.987 122.426 219.551 125.225H132.187C133.569 140.829 149.634 148.505 164.744 148.505ZM190.853 104.337C189.786 91.9361 177.255 80.2045 162.581 80.2045C147.907 80.2045 134.35 88.2757 132.187 104.337H190.853Z"
    fill="white"
  />
  <path
    d="M295.693 57.4208V85.9233C276.276 85.9233 264.832 94.7549 264.832 109.843V172.323H232.894V58.7693H263.105V69.7607C270.884 61.5679 282.319 57.4208 295.693 57.4208Z"
    fill="white"
  />
  <path
    d="M357.191 55.5348V58.7694H381.787V85.9131H357.191V172.313H325.254V85.9131H307.99V58.7694H325.254C325.254 30.1147 342.081 12.2284 374.018 12.2284H382V37.2226H375.095C363.66 37.2226 357.191 43.9046 357.191 55.5348Z"
    fill="white"
  />
  <path
    d="M27.9059 20.5733C27.9059 8.7201 36.6392 0 48.0635 0C59.7113 0 68.4344 8.7201 68.4344 20.5733C68.4344 31.9703 59.7113 40.7005 48.0635 40.7005C36.6493 40.7005 27.9059 31.9804 27.9059 20.5733Z"
    fill="#8640FF"
  />
</svg>