<svg width="150" height="150" viewBox="0 0 202 212" fill="none" xmlns="http://www.w3.org/2000/svg">
<path d="M61.6856 173.025C60.2482 173.025 59.0822 172.834 58.1876 172.453C57.2929 172.057 56.6182 171.514 56.1636 170.825C55.7236 170.135 55.4669 169.358 55.3936 168.493H57.1096C57.1536 169.197 57.3882 169.769 57.8136 170.209C58.2389 170.634 58.7962 170.949 59.4856 171.155C60.1896 171.36 60.9596 171.463 61.7956 171.463C63.0276 171.463 64.0029 171.25 64.7216 170.825C65.4402 170.385 65.7996 169.739 65.7996 168.889C65.7996 168.375 65.6162 167.965 65.2496 167.657C64.8976 167.334 64.4209 167.07 63.8196 166.865C63.2329 166.659 62.5876 166.476 61.8836 166.315C61.1796 166.139 60.4682 165.955 59.7496 165.765C59.0456 165.574 58.3929 165.332 57.7916 165.039C57.2049 164.745 56.7282 164.371 56.3616 163.917C56.0096 163.447 55.8336 162.853 55.8336 162.135C55.8336 160.947 56.2882 159.979 57.1976 159.231C58.1216 158.483 59.4929 158.109 61.3116 158.109C62.6022 158.109 63.6656 158.307 64.5016 158.703C65.3376 159.084 65.9609 159.59 66.3716 160.221C66.7969 160.851 67.0316 161.533 67.0756 162.267H65.3816C65.2936 161.533 64.9269 160.917 64.2816 160.419C63.6362 159.905 62.6462 159.649 61.3116 159.649C60.4902 159.649 59.8229 159.729 59.3096 159.891C58.7962 160.052 58.4002 160.265 58.1216 160.529C57.8576 160.778 57.6742 161.042 57.5716 161.321C57.4836 161.599 57.4396 161.863 57.4396 162.113C57.4396 162.597 57.6156 162.993 57.9676 163.301C58.3342 163.594 58.8109 163.843 59.3976 164.049C59.9989 164.239 60.6589 164.415 61.3776 164.577C62.0962 164.738 62.8076 164.921 63.5116 165.127C64.2302 165.317 64.8829 165.567 65.4696 165.875C66.0709 166.168 66.5476 166.549 66.8996 167.019C67.2662 167.488 67.4496 168.089 67.4496 168.823C67.4496 170.172 66.9362 171.213 65.9096 171.947C64.8829 172.665 63.4749 173.025 61.6856 173.025ZM74.4287 173.025C73.314 173.025 72.346 172.775 71.5247 172.277C70.7034 171.763 70.0727 171.074 69.6327 170.209C69.1927 169.343 68.9727 168.39 68.9727 167.349C68.9727 166.293 69.1927 165.339 69.6327 164.489C70.0727 163.623 70.7034 162.941 71.5247 162.443C72.346 161.929 73.314 161.673 74.4287 161.673C75.558 161.673 76.5261 161.929 77.3327 162.443C78.1541 162.941 78.7847 163.623 79.2247 164.489C79.6647 165.339 79.8847 166.293 79.8847 167.349C79.8847 168.39 79.6647 169.343 79.2247 170.209C78.7847 171.074 78.1541 171.763 77.3327 172.277C76.5261 172.775 75.558 173.025 74.4287 173.025ZM74.4287 171.529C75.25 171.529 75.9394 171.338 76.4967 170.957C77.0687 170.575 77.5014 170.069 77.7947 169.439C78.088 168.793 78.2347 168.097 78.2347 167.349C78.2347 166.586 78.088 165.889 77.7947 165.259C77.5014 164.628 77.0687 164.122 76.4967 163.741C75.9394 163.359 75.25 163.169 74.4287 163.169C73.622 163.169 72.9327 163.359 72.3607 163.741C71.7887 164.122 71.356 164.628 71.0627 165.259C70.7694 165.889 70.6227 166.586 70.6227 167.349C70.6227 168.097 70.7694 168.793 71.0627 169.439C71.356 170.069 71.7887 170.575 72.3607 170.957C72.9327 171.338 73.622 171.529 74.4287 171.529ZM82.0727 177.205V161.849H83.7227V163.609C84.1334 163.007 84.6614 162.538 85.3067 162.201C85.9667 161.849 86.7514 161.673 87.6607 161.673C88.7314 161.673 89.6627 161.929 90.4547 162.443C91.2614 162.941 91.8847 163.623 92.3247 164.489C92.7647 165.339 92.9847 166.293 92.9847 167.349C92.9847 168.39 92.7647 169.343 92.3247 170.209C91.8847 171.074 91.2614 171.763 90.4547 172.277C89.6627 172.775 88.7314 173.025 87.6607 173.025C86.7514 173.025 85.9667 172.849 85.3067 172.497C84.6614 172.13 84.1334 171.653 83.7227 171.067V177.205H82.0727ZM87.4407 171.529C88.262 171.529 88.9587 171.338 89.5307 170.957C90.1174 170.575 90.5647 170.069 90.8727 169.439C91.1807 168.793 91.3347 168.097 91.3347 167.349C91.3347 166.586 91.1807 165.889 90.8727 165.259C90.5647 164.628 90.1174 164.122 89.5307 163.741C88.9587 163.359 88.262 163.169 87.4407 163.169C86.634 163.169 85.9447 163.359 85.3727 163.741C84.8007 164.122 84.368 164.628 84.0747 165.259C83.7814 165.889 83.6347 166.586 83.6347 167.349C83.6347 168.097 83.7814 168.793 84.0747 169.439C84.368 170.069 84.8007 170.575 85.3727 170.957C85.9447 171.338 86.634 171.529 87.4407 171.529ZM95.1567 172.849V157.449H96.8067V163.565C97.2027 163.037 97.6867 162.589 98.2587 162.223C98.8307 161.856 99.564 161.673 100.459 161.673C101.221 161.673 101.933 161.856 102.593 162.223C103.267 162.575 103.81 163.11 104.221 163.829C104.646 164.533 104.859 165.405 104.859 166.447V172.849H103.209V166.491C103.209 165.493 102.923 164.694 102.351 164.093C101.779 163.477 101.038 163.169 100.129 163.169C99.5127 163.169 98.9553 163.308 98.4567 163.587C97.958 163.865 97.5547 164.261 97.2467 164.775C96.9533 165.273 96.8067 165.853 96.8067 166.513V172.849H95.1567ZM112.502 173.025C111.387 173.025 110.412 172.775 109.576 172.277C108.74 171.763 108.087 171.074 107.618 170.209C107.163 169.343 106.936 168.39 106.936 167.349C106.936 166.293 107.156 165.339 107.596 164.489C108.036 163.623 108.666 162.941 109.488 162.443C110.309 161.929 111.277 161.673 112.392 161.673C113.521 161.673 114.489 161.929 115.296 162.443C116.117 162.941 116.748 163.623 117.188 164.489C117.628 165.339 117.848 166.293 117.848 167.349V168.009H108.63C108.718 168.654 108.923 169.248 109.246 169.791C109.583 170.319 110.03 170.744 110.588 171.067C111.145 171.375 111.79 171.529 112.524 171.529C113.301 171.529 113.954 171.36 114.482 171.023C115.01 170.671 115.42 170.223 115.714 169.681H117.518C117.136 170.663 116.528 171.47 115.692 172.101C114.87 172.717 113.807 173.025 112.502 173.025ZM108.652 166.469H116.132C115.985 165.53 115.589 164.745 114.944 164.115C114.298 163.484 113.448 163.169 112.392 163.169C111.336 163.169 110.485 163.484 109.84 164.115C109.209 164.745 108.813 165.53 108.652 166.469ZM119.864 172.849V161.849H121.514V163.565C121.91 163.037 122.394 162.589 122.966 162.223C123.538 161.856 124.271 161.673 125.166 161.673C125.928 161.673 126.64 161.856 127.3 162.223C127.974 162.575 128.517 163.11 128.928 163.829C129.353 164.533 129.566 165.405 129.566 166.447V172.849H127.916V166.491C127.916 165.493 127.63 164.694 127.058 164.093C126.486 163.477 125.745 163.169 124.836 163.169C124.22 163.169 123.662 163.308 123.164 163.587C122.665 163.865 122.262 164.261 121.954 164.775C121.66 165.273 121.514 165.853 121.514 166.513V172.849H119.864ZM132.677 172.849V158.285H134.327V172.849H132.677ZM136.181 172.849L142.363 158.285H144.431L150.613 172.849H148.787L147.005 168.625H139.789L138.007 172.849H136.181ZM140.427 167.107H146.367L143.397 160.001L140.427 167.107Z" fill="#8C123F"/>
<path d="M200.331 137.99C170.336 234.037 30.4287 234.768 1.36628 137.836" stroke="#8C123F" stroke-width="2"/>
<path d="M1.01525 72.3516C32.638 -23.1715 172.537 -21.5251 199.948 75.8872" stroke="#8C123F" stroke-width="2"/>
<path d="M77.4194 79.2188V79.6245C77.4194 80.0261 77.745 80.3516 78.1465 80.3516H81.6237C81.8449 80.3516 82.0242 80.1723 82.0242 79.9511C82.0242 79.9161 82.0287 79.8814 82.0378 79.8476L82.1532 79.416C82.2285 79.1344 82.336 78.8624 82.4734 78.6054L82.9936 77.6328C83.316 77.0299 83.6936 76.4582 84.1214 75.9249L84.2054 75.8203L84.9324 74.6875L85.6595 73.7812L85.7637 73.6513C86.1784 73.1344 86.6295 72.6478 87.1136 72.1953L87.8407 71.5156L88.3425 70.9805C88.7587 70.5367 89.2127 70.1299 89.6995 69.7648L90.086 69.5021C90.3658 69.3119 90.6629 69.1486 90.9733 69.0143C91.3076 68.8697 91.6263 68.6914 91.9245 68.4823L92.4454 68.1171L92.7007 67.958C93.0122 67.7639 93.2822 67.5101 93.4953 67.2113C93.603 67.0603 93.7255 66.9205 93.8609 66.7938L93.8996 66.7577C94.0607 66.607 94.2065 66.4406 94.3346 66.261L94.3446 66.247C94.5317 65.9846 94.6815 65.6974 94.7898 65.3938L95.0323 64.7138C95.0849 64.5662 95.1484 64.4227 95.2224 64.2845L95.3823 63.9854C95.5226 63.723 95.5961 63.4302 95.5961 63.1327V61.3202V32.9198C95.5961 32.8229 95.5764 32.7271 95.5383 32.6381C95.3361 32.1655 95.6828 31.6402 96.1967 31.6402H106.311C106.813 31.6402 107.116 32.1946 106.845 32.6165C106.779 32.7187 106.744 32.8375 106.744 32.9589V33.3382C106.744 34.4025 107.607 35.2652 108.671 35.2652H110.666C111.069 35.2652 111.422 34.9945 111.526 34.6052C111.569 34.4443 111.656 34.2987 111.778 34.1849L111.784 34.1789C111.97 34.0047 112.076 33.7611 112.076 33.506V29.3724C112.076 28.6691 111.713 28.0157 111.117 27.6437C110.793 27.4423 110.42 27.3355 110.039 27.3355H92.0211C91.3749 27.3355 90.7686 27.6478 90.3934 28.1739C90.1518 28.5127 90.0219 28.9185 90.0219 29.3347V33.4254C90.0219 33.7319 90.149 34.0246 90.3728 34.2339C90.4614 34.3167 90.5358 34.4135 90.593 34.5204L90.6971 34.7151C90.8901 35.076 90.9893 35.4798 90.9855 35.8891L90.749 61.3202V62.6188C90.749 62.9562 90.6657 63.2883 90.5066 63.5858C90.1868 64.1838 89.7495 64.7112 89.2211 65.1362L89.1509 65.1927L88.0536 65.8514L86.3866 66.9843L85.1274 68.1171L83.4783 69.582L81.0548 72.1953L80.0853 73.3281C79.6025 73.93 79.1957 74.5891 78.8741 75.2905L78.6312 75.8203L78.1465 76.7265L77.7642 77.4413C77.696 77.5688 77.6374 77.7012 77.5889 77.8373C77.4767 78.1518 77.4194 78.4831 77.4194 78.817V79.2188Z" fill="#B63142" stroke="#B63142"/>
<mask id="path-5-inside-1_237_3610" fill="white">
<ellipse cx="82.2672" cy="105.274" rx="7.27065" ry="6.79693"/>
</mask>
<path d="M79.5379 105.274C79.5379 104.162 80.0381 103.281 80.5793 102.775C81.1089 102.28 81.7296 102.071 82.2672 102.071V122.071C91.1603 122.071 99.5379 115.174 99.5379 105.274H79.5379ZM82.2672 102.071C82.8048 102.071 83.4256 102.28 83.9552 102.775C84.4963 103.281 84.9966 104.162 84.9966 105.274H64.9966C64.9966 115.174 73.3742 122.071 82.2672 122.071V102.071ZM84.9966 105.274C84.9966 106.385 84.4963 107.267 83.9552 107.773C83.4256 108.268 82.8048 108.477 82.2672 108.477V88.4768C73.3742 88.4768 64.9966 95.3731 64.9966 105.274H84.9966ZM82.2672 108.477C81.7296 108.477 81.1089 108.268 80.5793 107.773C80.0381 107.267 79.5379 106.385 79.5379 105.274H99.5379C99.5379 95.3731 91.1603 88.4768 82.2672 88.4768V108.477Z" fill="#8C123F" mask="url(#path-5-inside-1_237_3610)"/>
<mask id="path-7-inside-2_237_3610" fill="white">
<ellipse cx="80.3288" cy="84.4297" rx="7.27065" ry="6.79693"/>
</mask>
<path d="M77.5994 84.4297C77.5994 83.3184 78.0997 82.4367 78.6408 81.9308C79.1704 81.4358 79.7912 81.2267 80.3288 81.2267V101.227C89.2218 101.227 97.5994 94.3304 97.5994 84.4297H77.5994ZM80.3288 81.2267C80.8664 81.2267 81.4871 81.4358 82.0167 81.9308C82.5578 82.4367 83.0581 83.3184 83.0581 84.4297H63.0581C63.0581 94.3304 71.4357 101.227 80.3288 101.227V81.2267ZM83.0581 84.4297C83.0581 85.541 82.5578 86.4227 82.0167 86.9286C81.4871 87.4237 80.8664 87.6328 80.3288 87.6328V67.6328C71.4357 67.6328 63.0581 74.5291 63.0581 84.4297H83.0581ZM80.3288 87.6328C79.7912 87.6328 79.1704 87.4237 78.6408 86.9286C78.0997 86.4227 77.5994 85.541 77.5994 84.4297H97.5994C97.5994 74.5291 89.2218 67.6328 80.3288 67.6328V87.6328Z" fill="#B63142" mask="url(#path-7-inside-2_237_3610)"/>
<path d="M77.5994 84.4297C77.5994 83.3184 78.0997 82.4367 78.6408 81.9308C79.1704 81.4358 79.7912 81.2267 80.3288 81.2267V101.227C89.2218 101.227 97.5994 94.3304 97.5994 84.4297H77.5994ZM80.3288 81.2267C80.8664 81.2267 81.4871 81.4358 82.0167 81.9308C82.5578 82.4367 83.0581 83.3184 83.0581 84.4297H63.0581C63.0581 94.3304 71.4357 101.227 80.3288 101.227V81.2267ZM83.0581 84.4297C83.0581 85.541 82.5578 86.4227 82.0167 86.9286C81.4871 87.4237 80.8664 87.6328 80.3288 87.6328V67.6328C71.4357 67.6328 63.0581 74.5291 63.0581 84.4297H83.0581ZM80.3288 87.6328C79.7912 87.6328 79.1704 87.4237 78.6408 86.9286C78.0997 86.4227 77.5994 85.541 77.5994 84.4297H97.5994C97.5994 74.5291 89.2218 67.6328 80.3288 67.6328V87.6328Z" fill="#B63142" mask="url(#path-7-inside-2_237_3610)"/>
<mask id="path-9-inside-3_237_3610" fill="white">
<ellipse cx="109.896" cy="40.4762" rx="7.27065" ry="6.79693"/>
</mask>
<path d="M107.166 40.4762C107.166 39.3649 107.667 38.4832 108.208 37.9773C108.737 37.4822 109.358 37.2731 109.896 37.2731V57.2731C118.789 57.2731 127.166 50.3768 127.166 40.4762H107.166ZM109.896 37.2731C110.433 37.2731 111.054 37.4822 111.584 37.9773C112.125 38.4832 112.625 39.3649 112.625 40.4762H92.625C92.625 50.3768 101.003 57.2731 109.896 57.2731V37.2731ZM112.625 40.4762C112.625 41.5875 112.125 42.4692 111.584 42.9751C111.054 43.4702 110.433 43.6793 109.896 43.6793V23.6793C101.003 23.6793 92.625 30.5756 92.625 40.4762H112.625ZM109.896 43.6793C109.358 43.6793 108.737 43.4702 108.208 42.9751C107.667 42.4692 107.166 41.5875 107.166 40.4762H127.166C127.166 30.5756 118.789 23.6793 109.896 23.6793V43.6793Z" fill="#B63142" mask="url(#path-9-inside-3_237_3610)"/>
<path d="M107.166 40.4762C107.166 39.3649 107.667 38.4832 108.208 37.9773C108.737 37.4822 109.358 37.2731 109.896 37.2731V57.2731C118.789 57.2731 127.166 50.3768 127.166 40.4762H107.166ZM109.896 37.2731C110.433 37.2731 111.054 37.4822 111.584 37.9773C112.125 38.4832 112.625 39.3649 112.625 40.4762H92.625C92.625 50.3768 101.003 57.2731 109.896 57.2731V37.2731ZM112.625 40.4762C112.625 41.5875 112.125 42.4692 111.584 42.9751C111.054 43.4702 110.433 43.6793 109.896 43.6793V23.6793C101.003 23.6793 92.625 30.5756 92.625 40.4762H112.625ZM109.896 43.6793C109.358 43.6793 108.737 43.4702 108.208 42.9751C107.667 42.4692 107.166 41.5875 107.166 40.4762H127.166C127.166 30.5756 118.789 23.6793 109.896 23.6793V43.6793Z" fill="#B63142" mask="url(#path-9-inside-3_237_3610)"/>
<mask id="path-11-inside-4_237_3610" fill="white">
<ellipse cx="109.896" cy="56.7888" rx="7.27065" ry="6.79693"/>
</mask>
<path d="M107.166 56.7888C107.166 55.6775 107.667 54.7958 108.208 54.2899C108.737 53.7949 109.358 53.5858 109.896 53.5858V73.5858C118.789 73.5858 127.166 66.6895 127.166 56.7888H107.166ZM109.896 53.5858C110.433 53.5858 111.054 53.7949 111.584 54.2899C112.125 54.7958 112.625 55.6775 112.625 56.7888H92.625C92.625 66.6895 101.003 73.5858 109.896 73.5858V53.5858ZM112.625 56.7888C112.625 57.9001 112.125 58.7818 111.584 59.2877C111.054 59.7828 110.433 59.9919 109.896 59.9919V39.9919C101.003 39.9919 92.625 46.8882 92.625 56.7888H112.625ZM109.896 59.9919C109.358 59.9919 108.737 59.7828 108.208 59.2877C107.667 58.7818 107.166 57.9001 107.166 56.7888H127.166C127.166 46.8882 118.789 39.9919 109.896 39.9919V59.9919Z" fill="#C75E4B" mask="url(#path-11-inside-4_237_3610)"/>
<path d="M107.166 56.7888C107.166 55.6775 107.667 54.7958 108.208 54.2899C108.737 53.7949 109.358 53.5858 109.896 53.5858V73.5858C118.789 73.5858 127.166 66.6895 127.166 56.7888H107.166ZM109.896 53.5858C110.433 53.5858 111.054 53.7949 111.584 54.2899C112.125 54.7958 112.625 55.6775 112.625 56.7888H92.625C92.625 66.6895 101.003 73.5858 109.896 73.5858V53.5858ZM112.625 56.7888C112.625 57.9001 112.125 58.7818 111.584 59.2877C111.054 59.7828 110.433 59.9919 109.896 59.9919V39.9919C101.003 39.9919 92.625 46.8882 92.625 56.7888H112.625ZM109.896 59.9919C109.358 59.9919 108.737 59.7828 108.208 59.2877C107.667 58.7818 107.166 57.9001 107.166 56.7888H127.166C127.166 46.8882 118.789 39.9919 109.896 39.9919V59.9919Z" fill="#C75E4B" mask="url(#path-11-inside-4_237_3610)"/>
<mask id="path-13-inside-5_237_3610" fill="white">
<ellipse cx="121.045" cy="101.649" rx="7.27065" ry="6.79693"/>
</mask>
<path d="M118.315 101.649C118.315 100.537 118.815 99.6555 119.357 99.1496C119.886 98.6546 120.507 98.4455 121.045 98.4455V118.445C129.938 118.445 138.315 111.549 138.315 101.649H118.315ZM121.045 98.4455C121.582 98.4455 122.203 98.6546 122.733 99.1496C123.274 99.6555 123.774 100.537 123.774 101.649H103.774C103.774 111.549 112.152 118.445 121.045 118.445V98.4455ZM123.774 101.649C123.774 102.76 123.274 103.642 122.733 104.147C122.203 104.643 121.582 104.852 121.045 104.852V84.8516C112.152 84.8516 103.774 91.7479 103.774 101.649H123.774ZM121.045 104.852C120.507 104.852 119.886 104.643 119.357 104.147C118.815 103.642 118.315 102.76 118.315 101.649H138.315C138.315 91.7479 129.938 84.8516 121.045 84.8516V104.852Z" fill="#C75E4B" mask="url(#path-13-inside-5_237_3610)"/>
<path d="M118.315 101.649C118.315 100.537 118.815 99.6555 119.357 99.1496C119.886 98.6546 120.507 98.4455 121.045 98.4455V118.445C129.938 118.445 138.315 111.549 138.315 101.649H118.315ZM121.045 98.4455C121.582 98.4455 122.203 98.6546 122.733 99.1496C123.274 99.6555 123.774 100.537 123.774 101.649H103.774C103.774 111.549 112.152 118.445 121.045 118.445V98.4455ZM123.774 101.649C123.774 102.76 123.274 103.642 122.733 104.147C122.203 104.643 121.582 104.852 121.045 104.852V84.8516C112.152 84.8516 103.774 91.7479 103.774 101.649H123.774ZM121.045 104.852C120.507 104.852 119.886 104.643 119.357 104.147C118.815 103.642 118.315 102.76 118.315 101.649H138.315C138.315 91.7479 129.938 84.8516 121.045 84.8516V104.852Z" fill="#C75E4B" mask="url(#path-13-inside-5_237_3610)"/>
<mask id="path-15-inside-6_237_3610" fill="white">
<ellipse cx="121.045" cy="119.321" rx="7.27065" ry="6.79693"/>
</mask>
<path d="M118.315 119.321C118.315 118.209 118.815 117.328 119.357 116.822C119.886 116.327 120.507 116.118 121.045 116.118V136.118C129.938 136.118 138.315 129.221 138.315 119.321H118.315ZM121.045 116.118C121.582 116.118 122.203 116.327 122.733 116.822C123.274 117.328 123.774 118.209 123.774 119.321H103.774C103.774 129.221 112.152 136.118 121.045 136.118V116.118ZM123.774 119.321C123.774 120.432 123.274 121.314 122.733 121.819C122.203 122.315 121.582 122.524 121.045 122.524V102.524C112.152 102.524 103.774 109.42 103.774 119.321H123.774ZM121.045 122.524C120.507 122.524 119.886 122.315 119.357 121.819C118.815 121.314 118.315 120.432 118.315 119.321H138.315C138.315 109.42 129.938 102.524 121.045 102.524V122.524Z" fill="#8C123F" mask="url(#path-15-inside-6_237_3610)"/>
<path d="M79.769 143.79C79.769 145.17 80.8883 146.29 82.269 146.29C83.6498 146.29 84.769 145.17 84.769 143.79H79.769ZM79.769 108.446V143.79H84.769V108.446H79.769Z" fill="#8C123F"/>
<path d="M118.545 143.79C118.545 145.17 119.665 146.29 121.045 146.29C122.426 146.29 123.545 145.17 123.545 143.79H118.545ZM118.545 123.852V143.79H123.545V123.852H118.545Z" fill="#8C123F"/>
<path d="M82.2676 144.016L121.046 143.79" stroke="#8C123F" stroke-width="5" stroke-linecap="round"/>
<path d="M113.077 62.5577L110.912 61.3521H106.343V61.8688L106.351 61.8912C106.504 62.3308 106.747 62.7337 107.064 63.0744C107.384 63.418 107.738 63.7288 108.119 64.0021L108.267 64.1078L109.95 64.969L110.912 65.4857L112.596 66.3468L114.279 67.3802L115.963 68.7581L117.166 69.9637L118.609 71.8582L119.811 75.4751V96.8318H123.9V74.6139L123.419 72.5472L122.457 70.6526L121.495 69.2747L119.811 67.3802L117.647 65.4857L115.242 63.7633L113.077 62.5577Z" fill="#C75E4B" stroke="#C75E4B"/>
<path d="M194.785 106.708C194.785 158.583 152.732 200.637 100.856 200.637C48.9807 200.637 6.92725 158.583 6.92725 106.708C6.92725 54.832 48.9807 12.7785 100.856 12.7785C152.732 12.7785 194.785 54.832 194.785 106.708Z" stroke="#8C123F" stroke-width="6"/>
</svg>
