<svg width="24" height="34" viewBox="0 0 202 211" fill="none" xmlns="http://www.w3.org/2000/svg">
<path d="M200.331 137.404C170.336 233.45 30.4287 234.182 1.36628 137.25" stroke="#F3EFE0" stroke-width="2"/>
<path d="M1.01525 71.7654C32.638 -23.7577 172.537 -22.1114 199.948 75.301" stroke="#F3EFE0" stroke-width="2"/>
<path d="M77.3613 100.297V100.703C77.3613 101.104 77.6868 101.43 78.0884 101.43H81.5656C81.7868 101.43 81.9661 101.251 81.9661 101.029C81.9661 100.994 81.9706 100.96 81.9797 100.926L82.0951 100.494C82.1704 100.213 82.2778 99.9407 82.4153 99.6837L82.9355 98.7111C83.2579 98.1082 83.6355 97.5365 84.0633 97.0032L84.1473 96.8986L84.8743 95.7658L85.6014 94.8595L85.7056 94.7296C86.1203 94.2127 86.5714 93.7261 87.0555 93.2736L87.7826 92.5939L88.2844 92.0588C88.7006 91.615 89.1546 91.2082 89.6414 90.8432L90.0279 90.5804C90.3077 90.3902 90.6048 90.2269 90.9152 90.0926C91.2495 89.948 91.5682 89.7697 91.8664 89.5607L92.3873 89.1954L92.6426 89.0363C92.9541 88.8422 93.2241 88.5885 93.4372 88.2896C93.5449 88.1387 93.6674 87.9988 93.8028 87.8721L93.8415 87.836C94.0026 87.6854 94.1483 87.519 94.2764 87.3393L94.2864 87.3253C94.4736 87.0629 94.6234 86.7758 94.7317 86.4722L94.9742 85.7921C95.0268 85.6445 95.0903 85.501 95.1642 85.3628L95.3242 85.0637C95.4645 84.8014 95.5379 84.5085 95.5379 84.211V82.3985V53.9981C95.5379 53.9013 95.5183 53.8054 95.4802 53.7164C95.278 53.2439 95.6247 52.7185 96.1386 52.7185H106.253C106.755 52.7185 107.057 53.2729 106.787 53.6949C106.721 53.797 106.686 53.9159 106.686 54.0373V54.4165C106.686 55.4808 107.549 56.3435 108.613 56.3435H110.608C111.011 56.3435 111.363 56.0728 111.468 55.6835C111.511 55.5226 111.598 55.377 111.72 55.2633L111.726 55.2572C111.912 55.083 112.018 54.8394 112.018 54.5844V50.4507C112.018 49.7475 111.655 49.094 111.059 48.722C110.735 48.5206 110.362 48.4138 109.981 48.4138H91.963C91.3168 48.4138 90.7105 48.7261 90.3353 49.2522C90.0937 49.5911 89.9638 49.9969 89.9638 50.413V54.5037C89.9638 54.8102 90.0909 55.103 90.3147 55.3122C90.4033 55.395 90.4777 55.4918 90.5349 55.5988L90.639 55.7934C90.832 56.1544 90.9312 56.5581 90.9274 56.9674L90.6909 82.3985V83.6971C90.6909 84.0345 90.6076 84.3666 90.4485 84.6641C90.1286 85.2621 89.6914 85.7895 89.163 86.2145L89.0928 86.271L87.9954 86.9298L86.3285 88.0626L85.0693 89.1954L83.4202 90.6603L80.9967 93.2736L80.0272 94.4064C79.5444 95.0083 79.1375 95.6674 78.816 96.3688L78.5731 96.8986L78.0884 97.8049L77.7061 98.5196C77.6379 98.6471 77.5793 98.7795 77.5308 98.9157C77.4186 99.2301 77.3613 99.5614 77.3613 99.8953V100.297Z" fill="#C6C9C1" stroke="#C6C9C1"/>
<mask id="path-4-inside-1_338_4431" fill="white">
<ellipse cx="82.2091" cy="126.352" rx="7.27065" ry="6.79693"/>
</mask>
<path d="M79.4798 126.352C79.4798 125.241 79.98 124.359 80.5212 123.853C81.0508 123.358 81.6715 123.149 82.2091 123.149V143.149C91.1021 143.149 99.4798 136.253 99.4798 126.352H79.4798ZM82.2091 123.149C82.7467 123.149 83.3675 123.358 83.8971 123.853C84.4382 124.359 84.9385 125.241 84.9385 126.352H64.9385C64.9385 136.253 73.3161 143.149 82.2091 143.149V123.149ZM84.9385 126.352C84.9385 127.463 84.4382 128.345 83.8971 128.851C83.3675 129.346 82.7467 129.555 82.2091 129.555V109.555C73.3161 109.555 64.9385 116.451 64.9385 126.352H84.9385ZM82.2091 129.555C81.6715 129.555 81.0508 129.346 80.5212 128.851C79.98 128.345 79.4798 127.463 79.4798 126.352H99.4798C99.4798 116.451 91.1021 109.555 82.2091 109.555V129.555Z" fill="#F3EFE0" mask="url(#path-4-inside-1_338_4431)"/>
<mask id="path-6-inside-2_338_4431" fill="white">
<ellipse cx="80.2707" cy="105.508" rx="7.27065" ry="6.79693"/>
</mask>
<path d="M77.5413 105.508C77.5413 104.397 78.0416 103.515 78.5827 103.009C79.1123 102.514 79.7331 102.305 80.2706 102.305V122.305C89.1637 122.305 97.5413 115.409 97.5413 105.508H77.5413ZM80.2706 102.305C80.8082 102.305 81.429 102.514 81.9586 103.009C82.4997 103.515 83 104.397 83 105.508H63C63 115.409 71.3776 122.305 80.2706 122.305V102.305ZM83 105.508C83 106.619 82.4997 107.501 81.9586 108.007C81.429 108.502 80.8082 108.711 80.2706 108.711V88.7111C71.3776 88.7111 63 95.6074 63 105.508H83ZM80.2706 108.711C79.7331 108.711 79.1123 108.502 78.5827 108.007C78.0416 107.501 77.5413 106.619 77.5413 105.508H97.5413C97.5413 95.6074 89.1637 88.7111 80.2706 88.7111V108.711Z" fill="#C6C9C1" mask="url(#path-6-inside-2_338_4431)"/>
<path d="M77.5413 105.508C77.5413 104.397 78.0416 103.515 78.5827 103.009C79.1123 102.514 79.7331 102.305 80.2706 102.305V122.305C89.1637 122.305 97.5413 115.409 97.5413 105.508H77.5413ZM80.2706 102.305C80.8082 102.305 81.429 102.514 81.9586 103.009C82.4997 103.515 83 104.397 83 105.508H63C63 115.409 71.3776 122.305 80.2706 122.305V102.305ZM83 105.508C83 106.619 82.4997 107.501 81.9586 108.007C81.429 108.502 80.8082 108.711 80.2706 108.711V88.7111C71.3776 88.7111 63 95.6074 63 105.508H83ZM80.2706 108.711C79.7331 108.711 79.1123 108.502 78.5827 108.007C78.0416 107.501 77.5413 106.619 77.5413 105.508H97.5413C97.5413 95.6074 89.1637 88.7111 80.2706 88.7111V108.711Z" fill="#C6C9C1" mask="url(#path-6-inside-2_338_4431)"/>
<mask id="path-8-inside-3_338_4431" fill="white">
<ellipse cx="109.838" cy="61.5545" rx="7.27065" ry="6.79693"/>
</mask>
<path d="M107.108 61.5545C107.108 60.4432 107.608 59.5615 108.15 59.0556C108.679 58.5606 109.3 58.3514 109.838 58.3514V78.3514C118.731 78.3514 127.108 71.4551 127.108 61.5545H107.108ZM109.838 58.3514C110.375 58.3514 110.996 58.5606 111.525 59.0556C112.067 59.5615 112.567 60.4432 112.567 61.5545H92.5669C92.5669 71.4551 100.945 78.3514 109.838 78.3514V58.3514ZM112.567 61.5545C112.567 62.6658 112.067 63.5475 111.525 64.0534C110.996 64.5485 110.375 64.7576 109.838 64.7576V44.7576C100.945 44.7576 92.5669 51.6539 92.5669 61.5545H112.567ZM109.838 64.7576C109.3 64.7576 108.679 64.5485 108.15 64.0534C107.608 63.5475 107.108 62.6658 107.108 61.5545H127.108C127.108 51.6539 118.731 44.7576 109.838 44.7576V64.7576Z" fill="#C6C9C1" mask="url(#path-8-inside-3_338_4431)"/>
<path d="M107.108 61.5545C107.108 60.4432 107.608 59.5615 108.15 59.0556C108.679 58.5606 109.3 58.3514 109.838 58.3514V78.3514C118.731 78.3514 127.108 71.4551 127.108 61.5545H107.108ZM109.838 58.3514C110.375 58.3514 110.996 58.5606 111.525 59.0556C112.067 59.5615 112.567 60.4432 112.567 61.5545H92.5669C92.5669 71.4551 100.945 78.3514 109.838 78.3514V58.3514ZM112.567 61.5545C112.567 62.6658 112.067 63.5475 111.525 64.0534C110.996 64.5485 110.375 64.7576 109.838 64.7576V44.7576C100.945 44.7576 92.5669 51.6539 92.5669 61.5545H112.567ZM109.838 64.7576C109.3 64.7576 108.679 64.5485 108.15 64.0534C107.608 63.5475 107.108 62.6658 107.108 61.5545H127.108C127.108 51.6539 118.731 44.7576 109.838 44.7576V64.7576Z" fill="#C6C9C1" mask="url(#path-8-inside-3_338_4431)"/>
<mask id="path-10-inside-4_338_4431" fill="white">
<ellipse cx="109.838" cy="77.8672" rx="7.27065" ry="6.79693"/>
</mask>
<path d="M107.108 77.8672C107.108 76.7559 107.608 75.8741 108.15 75.3683C108.679 74.8732 109.3 74.6641 109.838 74.6641V94.6641C118.731 94.6641 127.108 87.7678 127.108 77.8672H107.108ZM109.838 74.6641C110.375 74.6641 110.996 74.8732 111.525 75.3683C112.067 75.8741 112.567 76.7559 112.567 77.8672H92.5669C92.5669 87.7678 100.945 94.6641 109.838 94.6641V74.6641ZM112.567 77.8672C112.567 78.9785 112.067 79.8602 111.525 80.366C110.996 80.8611 110.375 81.0702 109.838 81.0702V61.0702C100.945 61.0702 92.5669 67.9665 92.5669 77.8672H112.567ZM109.838 81.0702C109.3 81.0702 108.679 80.8611 108.15 80.366C107.608 79.8602 107.108 78.9785 107.108 77.8672H127.108C127.108 67.9665 118.731 61.0702 109.838 61.0702V81.0702Z" fill="#C6C9C1" mask="url(#path-10-inside-4_338_4431)"/>
<path d="M107.108 77.8672C107.108 76.7559 107.608 75.8741 108.15 75.3683C108.679 74.8732 109.3 74.6641 109.838 74.6641V94.6641C118.731 94.6641 127.108 87.7678 127.108 77.8672H107.108ZM109.838 74.6641C110.375 74.6641 110.996 74.8732 111.525 75.3683C112.067 75.8741 112.567 76.7559 112.567 77.8672H92.5669C92.5669 87.7678 100.945 94.6641 109.838 94.6641V74.6641ZM112.567 77.8672C112.567 78.9785 112.067 79.8602 111.525 80.366C110.996 80.8611 110.375 81.0702 109.838 81.0702V61.0702C100.945 61.0702 92.5669 67.9665 92.5669 77.8672H112.567ZM109.838 81.0702C109.3 81.0702 108.679 80.8611 108.15 80.366C107.608 79.8602 107.108 78.9785 107.108 77.8672H127.108C127.108 67.9665 118.731 61.0702 109.838 61.0702V81.0702Z" fill="#C6C9C1" mask="url(#path-10-inside-4_338_4431)"/>
<mask id="path-12-inside-5_338_4431" fill="white">
<ellipse cx="120.986" cy="122.727" rx="7.27065" ry="6.79693"/>
</mask>
<path d="M118.257 122.727C118.257 121.616 118.757 120.734 119.299 120.228C119.828 119.733 120.449 119.524 120.986 119.524V139.524C129.879 139.524 138.257 132.627 138.257 122.727H118.257ZM120.986 119.524C121.524 119.524 122.145 119.733 122.674 120.228C123.216 120.734 123.716 121.616 123.716 122.727H103.716C103.716 132.627 112.093 139.524 120.986 139.524V119.524ZM123.716 122.727C123.716 123.838 123.216 124.72 122.674 125.226C122.145 125.721 121.524 125.93 120.986 125.93V105.93C112.093 105.93 103.716 112.826 103.716 122.727H123.716ZM120.986 125.93C120.449 125.93 119.828 125.721 119.299 125.226C118.757 124.72 118.257 123.838 118.257 122.727H138.257C138.257 112.826 129.879 105.93 120.986 105.93V125.93Z" fill="#C6C9C1" mask="url(#path-12-inside-5_338_4431)"/>
<path d="M118.257 122.727C118.257 121.616 118.757 120.734 119.299 120.228C119.828 119.733 120.449 119.524 120.986 119.524V139.524C129.879 139.524 138.257 132.627 138.257 122.727H118.257ZM120.986 119.524C121.524 119.524 122.145 119.733 122.674 120.228C123.216 120.734 123.716 121.616 123.716 122.727H103.716C103.716 132.627 112.093 139.524 120.986 139.524V119.524ZM123.716 122.727C123.716 123.838 123.216 124.72 122.674 125.226C122.145 125.721 121.524 125.93 120.986 125.93V105.93C112.093 105.93 103.716 112.826 103.716 122.727H123.716ZM120.986 125.93C120.449 125.93 119.828 125.721 119.299 125.226C118.757 124.72 118.257 123.838 118.257 122.727H138.257C138.257 112.826 129.879 105.93 120.986 105.93V125.93Z" fill="#C6C9C1" mask="url(#path-12-inside-5_338_4431)"/>
<mask id="path-14-inside-6_338_4431" fill="white">
<ellipse cx="120.986" cy="140.399" rx="7.27065" ry="6.79693"/>
</mask>
<path d="M118.257 140.399C118.257 139.288 118.757 138.406 119.299 137.9C119.828 137.405 120.449 137.196 120.986 137.196V157.196C129.879 157.196 138.257 150.3 138.257 140.399H118.257ZM120.986 137.196C121.524 137.196 122.145 137.405 122.674 137.9C123.216 138.406 123.716 139.288 123.716 140.399H103.716C103.716 150.3 112.093 157.196 120.986 157.196V137.196ZM123.716 140.399C123.716 141.51 123.216 142.392 122.674 142.898C122.145 143.393 121.524 143.602 120.986 143.602V123.602C112.093 123.602 103.716 130.498 103.716 140.399H123.716ZM120.986 143.602C120.449 143.602 119.828 143.393 119.299 142.898C118.757 142.392 118.257 141.51 118.257 140.399H138.257C138.257 130.498 129.879 123.602 120.986 123.602V143.602Z" fill="#F3EFE0" mask="url(#path-14-inside-6_338_4431)"/>
<path d="M79.7109 164.868C79.7109 166.249 80.8302 167.368 82.2109 167.368C83.5916 167.368 84.7109 166.249 84.7109 164.868H79.7109ZM79.7109 129.524V164.868H84.7109V129.524H79.7109Z" fill="#F3EFE0"/>
<path d="M118.487 164.868C118.487 166.249 119.607 167.368 120.987 167.368C122.368 167.368 123.487 166.249 123.487 164.868H118.487ZM118.487 144.93V164.868H123.487V144.93H118.487Z" fill="#F3EFE0"/>
<path d="M82.2095 165.094L120.988 164.868" stroke="#F3EFE0" stroke-width="5" stroke-linecap="round"/>
<path d="M113.019 83.636L110.854 82.4304H106.285V82.9471L106.293 82.9696C106.446 83.4091 106.689 83.812 107.006 84.1527C107.326 84.4963 107.679 84.8071 108.061 85.0804L108.209 85.1861L109.892 86.0473L110.854 86.564L112.538 87.4251L114.221 88.4585L115.905 89.8364L117.107 91.042L118.55 92.9365L119.753 96.5534V117.91H123.842V95.6923L123.361 93.6255L122.399 91.7309L121.437 90.3531L119.753 88.4585L117.588 86.564L115.183 84.8417L113.019 83.636Z" fill="#C6C9C1" stroke="#C6C9C1"/>
<path d="M194.785 106.121C194.785 157.997 152.732 200.051 100.856 200.051C48.9807 200.051 6.92725 157.997 6.92725 106.121C6.92725 54.2458 48.9807 12.1923 100.856 12.1923C152.732 12.1923 194.785 54.2458 194.785 106.121Z" stroke="#F3EFE0" stroke-width="6"/>
</svg>
